<svg width="46" height="44" viewBox="0 0 46 44" fill="none" xmlns="http://www.w3.org/2000/svg" aria-label="Stayzio Logo" role="img">
  <defs>
    <linearGradient id="szg" x1="0" y1="0" x2="46" y2="44" gradientUnits="userSpaceOnUse">
      <stop stop-color="white" stop-opacity="1"/>
      <stop offset="1" stop-color="white" stop-opacity="0.9"/>
    </linearGradient>
  </defs>
  <rect x="2" y="2" width="42" height="40" rx="10" ry="10" stroke="white" stroke-width="3" fill="none"/>
  <path d="M14 17c0-4.418 4.477-8 10-8 3.866 0 7.297 1.686 8.91 4.2 0.6 0.9-0.2 2.1-1.25 2.1H29.5c-3.59 0-6.5 2.015-6.5 4.5 0 1.933 2.04 3.5 4.556 3.5H32c1.657 0 3 1.343 3 3s-1.343 3-3 3h-6.444C20.04 29.3 16 26.985 16 23.8V23c0-2.3 1.1-4.3 2.8-5.7C16.6 18 14 17.7 14 17Z" fill="url(#szg)"/>
  <path d="M32 25h-8.5c-1.933 0-3.5 1.343-3.5 3s1.567 3 3.5 3H32c1.657 0 3-1.343 3-3s-1.343-3-3-3Z" fill="white"/>
</svg>
